D:\school\WTK\thesis\model\3dpredictsim\Results\Batchsim_tmt_linear_v2\Pog_s1_tmt_aCst_d05_k2000_ig24_pas_GRF.mot
nRows=17
nColumns=19

name D:\school\WTK\thesis\model\3dpredictsim\Results\Batchsim_tmt_linear_v2\Pog_s1_tmt_aCst_d05_k2000_ig24_pas_GRF.mot
datacolumns 19
datarows 17
range 0.5360833764 0.7076300568
endheader
time 	ground_force_vx	ground_force_vy	ground_force_vz	ground_force_px	ground_force_py	ground_force_pz	1_ground_force_vx	1_ground_force_vy	1_ground_force_vz	1_ground_force_px	1_ground_force_py	1_ground_force_pz	ground_torque_x	ground_torque_y	ground_torque_z	1_ground_torque_x	1_ground_torque_y	1_ground_torque_z
        0.5360833764	      124.7550833627	      522.4498731371	       -4.6041958734	        0.3242001345	        0.0000000000	        0.0493382038	      -61.3760627299	       42.5316242950	      -10.2181916719	        0.8301061591	        0.0000000000	       -0.0471110820	        0.0000000000	        0.0000000000	        0.0000000000	        0.0000000000	        0.0000000000	        0.0000000000	
        0.5468050439	       98.6910624158	      434.4685740592	        0.5036475493	        0.3343745711	        0.0000000000	        0.0479981535	     -113.3293560375	       96.7859147061	      -25.3357747781	        0.8407258085	        0.0000000000	       -0.0452948104	        0.0000000000	        0.0000000000	        0.0000000000	        0.0000000000	        0.0000000000	        0.0000000000	
        0.5575267114	       64.2831146402	      332.7245650340	        6.3380871735	        0.3507285856	        0.0000000000	        0.0454792532	     -113.7433412274	      209.1442492061	      -47.6520840876	        0.8477448000	        0.0000000000	       -0.0443477498	        0.0000000000	        0.0000000000	        0.0000000000	        0.0000000000	        0.0000000000	        0.0000000000	
        0.5682483790	       29.8332386264	      234.8055514957	        5.9190858579	        0.3759837049	        0.0000000000	        0.0410446411	      -60.2532464751	      381.3667348652	       -7.3310743882	        0.8527360138	        0.0000000000	       -0.0436306587	        0.0000000000	        0.0000000000	        0.0000000000	        0.0000000000	        0.0000000000	        0.0000000000	
        0.5789700465	        6.7069590431	      160.5119321514	        8.9183463991	        0.4064545210	        0.0000000000	        0.0337640731	      -72.7487966989	      593.9028498657	        6.9475365205	        0.8613201245	        0.0000000000	       -0.0458635135	        0.0000000000	        0.0000000000	        0.0000000000	        0.0000000000	        0.0000000000	        0.0000000000	
        0.5896917140	       -1.3258865874	      133.8180723095	       12.3884442252	        0.4103077264	        0.0000000000	        0.0327361656	     -111.1269789775	      798.5742084366	       14.5527863289	        0.8697848656	        0.0000000000	       -0.0484188517	        0.0000000000	        0.0000000000	        0.0000000000	        0.0000000000	        0.0000000000	        0.0000000000	
        0.6004133816	       -2.2459839532	      100.8606685764	       14.2321934213	        0.4108908058	        0.0000000000	        0.0329578354	     -126.8464196908	      900.4847523057	       17.9608698983	        0.8755155875	        0.0000000000	       -0.0499987110	        0.0000000000	        0.0000000000	        0.0000000000	        0.0000000000	        0.0000000000	        0.0000000000	
        0.6111350491	       -5.2749668540	       64.4912349338	       13.2522097537	        0.4113411177	        0.0000000000	        0.0330832730	     -123.5790450763	      905.6687407094	       18.3100361169	        0.8797068961	        0.0000000000	       -0.0510305875	        0.0000000000	        0.0000000000	        0.0000000000	        0.0000000000	        0.0000000000	        0.0000000000	
        0.6218567166	       -9.3046520107	       26.5428251200	        6.5633826439	        0.4109474991	        0.0000000000	        0.0327314562	     -113.3540353054	      868.9256306495	       17.7267249688	        0.8833329162	        0.0000000000	       -0.0517783926	        0.0000000000	        0.0000000000	        0.0000000000	        0.0000000000	        0.0000000000	        0.0000000000	
        0.6325783841	        0.1692484333	       -0.1679907377	       -0.0144734925	        0.0000000000	        0.0000000000	        0.0000000000	     -100.9045561945	      830.3773649065	       16.1262624762	        0.8871705250	        0.0000000000	       -0.0524144848	        0.0000000000	        0.0000000000	        0.0000000000	        0.0000000000	        0.0000000000	        0.0000000000	
        0.6433000517	        0.0007399903	       -0.0006050245	        0.0000017062	        0.0000000000	        0.0000000000	        0.0000000000	      -92.0556657618	      805.4730436269	       17.1877687515	        0.8923066382	        0.0000000000	       -0.0530771256	        0.0000000000	        0.0000000000	        0.0000000000	        0.0000000000	        0.0000000000	        0.0000000000	
        0.6540217192	        0.0003007218	       -0.0002137866	        0.0000067422	        0.0000000000	        0.0000000000	        0.0000000000	      -84.8813559838	      782.5623931210	       17.1662749388	        0.8984741878	        0.0000000000	       -0.0532957761	        0.0000000000	        0.0000000000	        0.0000000000	        0.0000000000	        0.0000000000	        0.0000000000	
        0.6647433867	        0.0020467250	       -0.0013046964	        0.0000635775	        0.0000000000	        0.0000000000	        0.0000000000	      -76.6374624943	      747.6842247402	       16.9543317224	        0.9044339083	        0.0000000000	       -0.0534083742	        0.0000000000	        0.0000000000	        0.0000000000	        0.0000000000	        0.0000000000	        0.0000000000	
        0.6754650542	        0.0041751599	       -0.0024403922	        0.0001480502	        0.0000000000	        0.0000000000	        0.0000000000	      -68.6917081114	      711.6804042040	       16.6617475781	        0.9103224496	        0.0000000000	       -0.0533939316	        0.0000000000	        0.0000000000	        0.0000000000	        0.0000000000	        0.0000000000	        0.0000000000	
        0.6861867218	       -0.0650924434	        0.0354318035	       -0.0024897223	        0.0000000000	        0.0000000000	        0.0000000000	      -61.0975413254	      680.9074115328	       16.6242963975	        0.9160830758	        0.0000000000	       -0.0533440018	        0.0000000000	        0.0000000000	        0.0000000000	        0.0000000000	        0.0000000000	        0.0000000000	
        0.6969083893	       -0.0459070078	        0.0235258279	       -0.0018605833	        0.0000000000	        0.0000000000	        0.0000000000	      -53.9063902218	      656.2972045184	       17.0572010146	        0.9215444433	        0.0000000000	       -0.0532894702	        0.0000000000	        0.0000000000	        0.0000000000	        0.0000000000	        0.0000000000	        0.0000000000	
        0.7076300568	       -0.0326097344	        0.0158702421	       -0.0013783277	        0.0000000000	        0.0000000000	        0.0000000000	      -47.4174400609	      637.3354730925	       17.5094000670	        0.9266993641	        0.0000000000	       -0.0532216361	        0.0000000000	        0.0000000000	        0.0000000000	        0.0000000000	        0.0000000000	        0.0000000000	
